# xmcd CD database file
#
# Track frame offsets:
#	150
#	15122
#	35629
#	50171
#	70043
#	87585
#	101967
#	118071
#	136841
#	157600
#	172882
#	191307
#
# Disc length: 2782 seconds
#
# Revision: 1
# Processed by: cddbd v1.5.1PL0 Copyright (c) Steve Scherf et al.
# Submitted via: CDex 1.51
#
DISCID=930adc0c
DTITLE=ROAD OF MAJOR - ROAD OF MAJOR
DYEAR=1900
DGENRE=
TTITLE0=??????
TTITLE1=??
TTITLE2=?????
TTITLE3=??
TTITLE4=????
TTITLE5=F.L.D
TTITLE6=????
TTITLE7=??????
TTITLE8=row,row,row
TTITLE9=????
TTITLE10=????????
TTITLE11=??
EXTD=
EXTT0=
EXTT1=
EXTT2=
EXTT3=
EXTT4=
EXTT5=
EXTT6=
EXTT7=
EXTT8=
EXTT9=
EXTT10=
EXTT11=
PLAYORDER=
